<svg width="180.5" height="39" xmlns="http://www.w3.org/2000/svg">
 <style type="text/css">.st0{fill:#FFFFFF;}
	.st1{fill:#C6C6C6;}
	.st2{fill:#CCCCCC;}</style>

 <g>
  <title>background</title>
  <rect fill="none" id="canvas_background" height="402" width="500" y="-1" x="-1"/>
 </g>
 <g>
  <title>Layer 1</title>
  <g id="svg_8">
   <path class="st1" d="m64.088531,8l-3.2,0l-6.5,15.7l-1.3,-15.7l-2.3,0l1.5,17.9l3.3,0l6.5,-16l0.9,16l3.3,0l7.9,-17.9l-2.3,0l-6.9,15.7l-0.9,-15.7z" id="svg_1"/>
   <path class="st1" d="m83.288531,21.3l0,-3.8c0,-2.7 -1.5,-4.9 -5.3,-4.9s-5.3,2.2 -5.3,4.9l0,3.8c0,2.7 1.5,4.9 5.3,4.9s5.3,-2.2 5.3,-4.9zm-2.2,-3.9l0,3.9c0,1.9 -1,2.9 -3.1,2.9c-2,0 -3.1,-1 -3.1,-2.9l0,-3.9c0,-1.9 1,-2.9 3.1,-2.9c2,0 3.1,1 3.1,2.9z" id="svg_2"/>
   <path class="st1" d="m90.288531,12.6c-1.3,0.5 -2.6,1.3 -3.6,2.1l-0.1,-1.8l-2,0l0,13.1l2.3,0l0,-9c1.1,-0.8 2.5,-1.7 3.7,-2.3l-0.3,-2.1z" id="svg_3"/>
   <path class="st1" d="m93.788531,25.9l0,-18.7l-2.3,0.3l0,18.4l2.3,0zm5.2,-13.1l-4.6,6.5l4.8,6.6l2.7,0l-4.9,-6.6l4.7,-6.5l-2.7,0z" id="svg_4"/>
   <path class="st1" d="m110.388531,7.3c-0.9,-0.2 -1.7,-0.3 -2.5,-0.3c-2.4,0 -3.7,1.2 -3.7,3.5l0,2.4l-2.3,0l0,1.9l2.3,0l0,11.2l2.3,0l0,-11.3l3.4,0l0.2,-1.9l-3.6,0l0,-2.2c0,-1.3 0.3,-1.8 1.7,-1.8c0.6,0 1.4,0.1 2,0.2l0.2,-1.7zm4.5,18.6l0,-18.7l-2.3,0.3l0,18.4l2.3,0z" id="svg_5"/>
   <path class="st1" d="m127.888531,21.3l0,-3.8c0,-2.7 -1.5,-4.9 -5.3,-4.9c-3.8,0 -5.3,2.2 -5.3,4.9l0,3.8c0,2.7 1.5,4.9 5.3,4.9c3.8,0 5.3,-2.2 5.3,-4.9zm-2.3,-3.9l0,3.9c0,1.9 -1,2.9 -3.1,2.9c-2,0 -3.1,-1 -3.1,-2.9l0,-3.9c0,-1.9 1,-2.9 3.1,-2.9c2.1,0 3.1,1 3.1,2.9z" id="svg_6"/>
   <path class="st1" d="m143.388531,25.9l2.8,-13.1l-2.1,0l-2.2,10.9l-3.2,-10.9l-2.7,0l-3.2,10.9l-2.2,-10.9l-2.1,0l2.8,13.1l2.9,0l3.2,-11.1l3.2,11.1l2.8,0z" id="svg_7"/>
   <polygon class="st0" points="12.988594204187393,25.200000762939453 7.488559871912003,16.600000381469727 7.488559871912003,25.200000762939453 3.8885389864444733,25.200000762939453 3.8885389864444733,8.100000381469727 7.488559871912003,8.100000381469727 7.488559871912003,16.5 12.68859687447548,8.100000381469727 16.7886201441288,8.100000381469727 11.388584285974503,16.5 17.18862357735634,25.200000762939453 " id="svg_11"/>
   <path class="st0" d="m21.988531,25.4c-3.9,0 -5.4,-1.4 -5.4,-4.9l0,-3.3c0,-3.5 1.6,-4.9 5.4,-4.9c0.8,0 2.1,0.1 3,0.5l0.2,0.1l-0.4,2.9l-0.2,-0.1c-0.8,-0.2 -1.8,-0.3 -2.5,-0.3c-1.6,0 -2.1,0.4 -2.1,1.8l0,3.4c0,1.4 0.5,1.8 2.1,1.8c0.8,0 1.7,-0.1 2.5,-0.3l0.2,-0.1l0.4,2.9l-0.2,0.1c-0.8,0.2 -2,0.4 -3,0.4z" id="svg_12"/>
   <path class="st0" d="m31.188531,25.4c-3.6,0 -5.3,-1.6 -5.3,-4.9l0,-3.2c0,-3.2 1.8,-4.9 5.2,-4.9c3.4,0 5,1.6 5,5.1l0,2.8l-6.8,0l0,0.4c0,1.4 0.5,1.8 2.2,1.8c1.2,0 2.4,-0.2 3.7,-0.6l0.2,-0.1l0.6,2.7l-0.2,0.1c-1.3,0.5 -3,0.8 -4.6,0.8zm0,-10.1c-1.2,0 -1.8,0.6 -1.8,1.7l0,0.4l3.5,0l0,-0.4c-0.1,-1.3 -0.6,-1.7 -1.7,-1.7z" id="svg_13"/>
   <polygon class="st0" points="37.68864265084267,25.200000762939453 37.68864265084267,7.699999809265137 41.08860221505165,7.199999809265137 41.08860221505165,25.200000762939453 " id="svg_14"/>
   <polygon class="st0" points="42.98857322335243,25.200000762939453 42.98857322335243,7.699999809265137 46.38853278756142,7.199999809265137 46.38853278756142,25.200000762939453 " id="svg_15"/>
  </g>
 </g>
</svg>