<?xml version="1.0" encoding="utf-8"?>
<!-- Generator: Adobe Illustrator 19.2.0, SVG Export Plug-In . SVG Version: 6.00 Build 0)  -->
<svg version="1.1"
	 id="Layer_1" xmlns:cc="http://creativecommons.org/ns#" xmlns:dc="http://purl.org/dc/elements/1.1/" xmlns:rdf="http://www.w3.org/1999/02/22-rdf-syntax-ns#"
	 xmlns="http://www.w3.org/2000/svg" xmlns:xlink="http://www.w3.org/1999/xlink" x="0px" y="0px" viewBox="0 0 215.5 39"
	 style="enable-background:new 0 0 215.5 39;" xml:space="preserve">
<style type="text/css">
	.st0{fill:#FFFFFF;}
	.st1{fill:#C6C6C6;}
	.st2{fill:#CCCCCC;}
</style>
<g>
	<g>
		<path id="SVGID_1_" class="st0" d="M54.1,6.4 M54.1,6.4 M54.1,6.4c-3,0.2-6.4,1.2-9.2,2.8c-0.3,0.2-0.6,0.3-0.9,0.6
			c-0.3,0.2-0.7,0.5-1,0.7l0,0c0,0,0,0,0,0l0,0l0,0c0,0,0,0,0,0l0,0c0,0,0,0,0,0l0,0l0,0l0,0l0,0l0,0l0,0l0,0
			c-0.3,0.3-0.6,0.6-0.9,0.8l0,0l0,0l0,0l0,0c0.6,0.2,1.1,0.3,1.7,0.4c1.1,0.2,2.2,0.3,3.3,0.5c0.8,0,1.5,0.1,2.2,0.1
			c4.7,0,8.6-1.4,11.3-4.5c0,0,0.1-0.1,0.1-0.2c0,0,0,0,0,0c0,0,0-0.1,0.1-0.1c0,0,0,0,0,0l0,0l0,0l0,0l0,0l0,0l0,0l0,0l0,0l0,0l0,0
			l0,0l0,0l0,0l0,0l0,0l0,0l0,0l0,0l0,0l0,0l0,0l0,0l0,0l0,0l0,0l0,0l0,0l0,0l0,0l0,0l0,0l0,0l0,0l0,0l0,0l0,0l0,0l0,0l0,0l0,0l0,0
			l0,0l0,0l0,0l0,0l0,0l0,0l0,0l0,0l0,0c-0.6-0.5-0.7-0.5-0.7-0.5s-0.4-0.2-2.1-0.6C55.7,6.2,54.1,6.4,54.1,6.4 M60.3,8.8L60.3,8.8
			c-2.9,3.4-7,4.6-11.2,4.6c-0.2,0-0.3,0-0.5,0c3.3,0.6,6.4,1.1,8.9,2c2.4-1.9,4.1-3.9,4.2-5.6c0-0.1-0.1-0.2-0.1-0.3
			c-0.1-0.3-0.3-0.5-0.4-0.7c-0.1-0.2-0.2-0.3-0.3-0.5C60.6,8.4,60.4,8.6,60.3,8.8 M58.9,16c1.1,0.6,2.1,1.2,2.6,2.1
			c0.2-0.9,0.4-1.8,0.5-2.6c0.1-0.6,0.1-1.2,0.1-1.8c0-0.6,0-1.2-0.1-1.8C61.5,13,60.4,14.5,58.9,16 M40.5,12.9L40.5,12.9
			C40.5,12.9,40.5,12.9,40.5,12.9C40.5,12.9,40.5,12.9,40.5,12.9C40.5,12.9,40.5,13,40.5,12.9L40.5,12.9C40.4,13,40.4,13,40.4,13
			l0,0c0,0,0,0,0,0l0,0c0,0,0,0,0,0l0,0c0,0,0,0,0,0l0,0c0,0,0,0,0,0l0,0c0,0,0,0,0,0l0,0c0,0,0,0,0,0l0,0c0,0,0,0,0,0l0,0l0,0
			c0,0,0,0,0,0l0,0c0,0,0,0,0,0l0,0c0,0,0,0,0,0l0,0c0,0,0,0,0,0l0,0c0,0,0,0,0,0l0,0c-0.3,0.4-0.5,0.8-0.7,1.2l0,0v0l0,0v0l0,0
			c0,0,0,0,0,0l0,0c0,0,0,0,0,0c0,0,0,0,0,0l0,0v0l0,0v0l0,0v0l0,0c-0.1,0.2-0.1,0.4-0.2,0.6c0,0,0,0.1,0,0.1
			c-0.2,0.6-0.3,1.2-0.3,1.8c0,0.1,0,0.3,0,0.4c0,0,0,0,0,0c0,0,0,0,0,0l0,0l0,0c0,0.4,0.2,1,0.4,1.6l0,0c0,0,0,0,0,0v0
			c0,0.2,0.1,0.4,0.2,0.6l0,0v0l0,0v0l0,0v0c0.2,0.3,0.4,0.5,0.6,0.7c2.8,2,10.5-0.9,15.9-4.7C51.5,14.7,44.9,13.8,40.5,12.9
			L40.5,12.9 M54.6,19.5c-3.1,2.1-6.6,3.8-9.8,4.3c-0.6,0.1-1.2,0.2-1.8,0.2c-0.5,0-1,0-1.5-0.1l0,0l0,0c0,0,0,0,0,0l0,0
			c-0.2,0-0.3-0.1-0.5-0.1c0,0,0,0,0,0.1l0,0c0.1,0.1,0.1,0.2,0.2,0.3v0c1.6,2.7,4.2,3.7,7.1,3.7c0.5,0,1,0,1.5-0.1
			c4.8-0.7,9.6-3.9,10.4-6.7c0-0.2,0-0.4,0-0.6c0-1.4-1.1-2.5-2.8-3.4C56.7,18,55.7,18.7,54.6,19.5 M48.2,28.8c-0.7,0-1.4,0-2-0.2
			c-0.6-0.1-1.2-0.3-1.7-0.6c0.2,0.2,0.4,0.4,0.6,0.6c1.1,1,2.2,1.8,3.4,2.2c0.9,0.3,1.9,0.5,2.8,0.3c0.3,0,0.5-0.1,0.7-0.2
			c1.4-0.4,2.6-1.3,3.8-2.3c0.3-0.3,0.5-0.5,0.8-0.8c1.1-1.2,2.1-2.7,3-4.3C57.4,26.3,52.6,28.8,48.2,28.8"/>
	</g>
</g>
<path class="st1" d="M131.3,10h-3.2l-6.5,15.7L120.3,10H118l1.5,17.9h3.3l6.5-16l0.9,16h3.3l7.9-17.9h-2.3l-6.9,15.7L131.3,10z"/>
<path class="st1" d="M150.5,23.3v-3.8c0-2.7-1.5-4.9-5.3-4.9s-5.3,2.2-5.3,4.9v3.8c0,2.7,1.5,4.9,5.3,4.9S150.5,26,150.5,23.3z
	 M148.3,19.4v3.9c0,1.9-1,2.9-3.1,2.9c-2,0-3.1-1-3.1-2.9v-3.9c0-1.9,1-2.9,3.1-2.9C147.2,16.5,148.3,17.5,148.3,19.4z"/>
<path class="st1" d="M157.5,14.6c-1.3,0.5-2.6,1.3-3.6,2.1l-0.1-1.8h-2v13.1h2.3v-9c1.1-0.8,2.5-1.7,3.7-2.3L157.5,14.6z"/>
<path class="st1" d="M161,27.9V9.2l-2.3,0.3v18.4H161z M166.2,14.8l-4.6,6.5l4.8,6.6h2.7l-4.9-6.6l4.7-6.5H166.2z"/>
<path class="st1" d="M177.6,9.3c-0.9-0.2-1.7-0.3-2.5-0.3c-2.4,0-3.7,1.2-3.7,3.5v2.4h-2.3v1.9h2.3v11.2h2.3V16.7h3.4l0.2-1.9h-3.6
	v-2.2c0-1.3,0.3-1.8,1.7-1.8c0.6,0,1.4,0.1,2,0.2L177.6,9.3z M182.1,27.9V9.2l-2.3,0.3v18.4H182.1z"/>
<path class="st1" d="M195.1,23.3v-3.8c0-2.7-1.5-4.9-5.3-4.9c-3.8,0-5.3,2.2-5.3,4.9v3.8c0,2.7,1.5,4.9,5.3,4.9
	C193.6,28.2,195.1,26,195.1,23.3z M192.8,19.4v3.9c0,1.9-1,2.9-3.1,2.9c-2,0-3.1-1-3.1-2.9v-3.9c0-1.9,1-2.9,3.1-2.9
	C191.8,16.5,192.8,17.5,192.8,19.4z"/>
<path class="st1" d="M210.6,27.9l2.8-13.1h-2.1l-2.2,10.9l-3.2-10.9h-2.7L200,25.7l-2.2-10.9h-2.1l2.8,13.1h2.9l3.2-11.1l3.2,11.1
	H210.6z"/>
<rect x="1" y="12.3" class="st2" width="15.8" height="2.8"/>
<rect x="1" y="17.4" class="st2" width="15.8" height="2.8"/>
<rect x="1" y="22.5" class="st2" width="15.8" height="2.8"/>
<polygon class="st0" points="80.2,27.2 74.7,18.6 74.7,27.2 71.1,27.2 71.1,10.1 74.7,10.1 74.7,18.5 79.9,10.1 84,10.1 78.6,18.5 
	84.4,27.2 "/>
<path class="st0" d="M89.2,27.4c-3.9,0-5.4-1.4-5.4-4.9v-3.3c0-3.5,1.6-4.9,5.4-4.9c0.8,0,2.1,0.1,3,0.5l0.2,0.1L92,17.8l-0.2-0.1
	c-0.8-0.2-1.8-0.3-2.5-0.3c-1.6,0-2.1,0.4-2.1,1.8v3.4c0,1.4,0.5,1.8,2.1,1.8c0.8,0,1.7-0.1,2.5-0.3L92,24l0.4,2.9L92.2,27
	C91.4,27.2,90.2,27.4,89.2,27.4z"/>
<path class="st0" d="M98.4,27.4c-3.6,0-5.3-1.6-5.3-4.9v-3.2c0-3.2,1.8-4.9,5.2-4.9c3.4,0,5,1.6,5,5.1v2.8h-6.8v0.4
	c0,1.4,0.5,1.8,2.2,1.8c1.2,0,2.4-0.2,3.7-0.6l0.2-0.1l0.6,2.7l-0.2,0.1C101.7,27.1,100,27.4,98.4,27.4z M98.4,17.3
	c-1.2,0-1.8,0.6-1.8,1.7v0.4h3.5V19C100,17.7,99.5,17.3,98.4,17.3z"/>
<polygon class="st0" points="104.9,27.2 104.9,9.7 108.3,9.2 108.3,27.2 "/>
<polygon class="st0" points="110.2,27.2 110.2,9.7 113.6,9.2 113.6,27.2 "/>
</svg>
