<svg xmlns="http://www.w3.org/2000/svg" xmlns:xlink="http://www.w3.org/1999/xlink" preserveAspectRatio="xMidYMid" viewBox="0 0 60 60">
  <defs>
    <style>
      .cls-1 {
        fill: #001c30;
        fill-rule: evenodd;
      }
    </style>
  </defs>
  <path d="M6.594,2.239 C4.220,4.613 3.022,7.807 3.022,11.214 C3.022,14.567 4.220,17.769 6.594,20.205 L4.586,22.355 C1.541,19.226 0.056,15.118 -0.015,11.010 C0.056,7.183 1.343,3.203 4.511,0.015 L6.594,2.239 ZM39.072,56.796 C38.818,56.958 38.527,56.958 38.206,56.958 C37.273,56.958 36.310,56.384 35.971,55.335 L35.191,53.400 L22.969,53.400 L10.438,53.400 L9.676,55.335 C9.337,56.384 8.415,56.958 7.475,56.958 C7.120,56.958 6.874,56.958 6.594,56.796 C5.329,56.317 4.705,54.838 5.191,53.527 L20.133,13.776 L22.420,12.177 L23.316,12.177 L25.533,13.776 L40.509,53.527 C40.979,54.838 40.359,56.317 39.072,56.796 M13.737,6.127 C12.296,7.534 11.598,9.538 11.598,11.349 C11.598,13.152 12.247,14.963 13.535,16.301 L11.647,18.240 C9.833,16.355 8.680,13.738 8.680,11.145 C8.680,8.698 9.628,6.201 11.781,4.039 L13.737,6.127 ZM20.532,50.884 L13.957,44.125 L11.400,50.884 L20.532,50.884 ZM14.878,41.554 L17.106,43.777 L21.260,39.554 L17.256,35.365 L14.878,41.554 ZM18.398,33.087 L22.969,37.751 L27.548,33.087 L18.398,33.087 ZM27.152,45.589 L22.969,41.265 L18.801,45.589 L22.969,49.909 L27.152,45.589 ZM19.069,30.556 L26.611,30.556 L22.846,20.479 L19.069,30.556 ZM19.752,8.929 C19.752,7.183 21.148,5.718 22.846,5.718 C24.592,5.718 25.936,7.183 25.936,8.929 C25.936,10.671 24.592,12.104 22.846,12.104 C21.148,12.104 19.752,10.671 19.752,8.929 M28.507,35.573 L24.660,39.554 L28.824,43.777 L30.851,41.762 L28.507,35.573 ZM34.276,50.884 L31.817,44.263 L25.402,50.884 L34.276,50.884 ZM32.272,16.440 C33.709,15.057 34.441,13.029 34.441,11.145 C34.441,9.484 33.747,7.600 32.467,6.201 L34.351,4.267 C36.120,6.266 37.333,8.767 37.333,11.429 C37.333,13.850 36.385,16.355 34.276,18.455 L32.272,16.440 ZM39.404,20.336 C41.789,17.950 42.972,14.748 42.916,11.349 C42.972,8.008 41.789,4.751 39.404,2.305 L41.453,0.285 C44.472,3.357 45.912,7.461 46.024,11.569 C45.912,15.387 44.670,19.365 41.494,22.494 L39.404,20.336 Z" transform="translate(6.98 1.51)" class="cls-1"/>
</svg>
