<?xml version="1.0" encoding="utf-8"?>
<!-- Generator: Adobe Illustrator 19.2.0, SVG Export Plug-In . SVG Version: 6.00 Build 0)  -->
<svg version="1.1"
	 id="Layer_1" xmlns:cc="http://creativecommons.org/ns#" xmlns:dc="http://purl.org/dc/elements/1.1/" xmlns:rdf="http://www.w3.org/1999/02/22-rdf-syntax-ns#"
	 xmlns="http://www.w3.org/2000/svg" xmlns:xlink="http://www.w3.org/1999/xlink" x="0px" y="0px" viewBox="0 0 180.5 39"
	 style="enable-background:new 0 0 215.5 39;" xml:space="preserve">
<style type="text/css">
	.st0{fill:#FFFFFF;}
	.st1{fill:#C6C6C6;}
	.st2{fill:#CCCCCC;}
</style>
	<g>
  <path id="svg_1" d="m96.3,8l-3.2,0l-6.5,15.7l-1.3,-15.7l-2.3,0l1.5,17.9l3.3,0l6.5,-16l0.9,16l3.3,0l7.9,-17.9l-2.3,0l-6.9,15.7l-0.9,-15.7z" class="st1"/>
		<path id="svg_2" d="m115.5,21.3l0,-3.8c0,-2.7 -1.5,-4.9 -5.3,-4.9s-5.3,2.2 -5.3,4.9l0,3.8c0,2.7 1.5,4.9 5.3,4.9s5.3,-2.2 5.3,-4.9zm-2.2,-3.9l0,3.9c0,1.9 -1,2.9 -3.1,2.9c-2,0 -3.1,-1 -3.1,-2.9l0,-3.9c0,-1.9 1,-2.9 3.1,-2.9c2,0 3.1,1 3.1,2.9z" class="st1"/>
		<path id="svg_3" d="m122.5,12.6c-1.3,0.5 -2.6,1.3 -3.6,2.1l-0.1,-1.8l-2,0l0,13.1l2.3,0l0,-9c1.1,-0.8 2.5,-1.7 3.7,-2.3l-0.3,-2.1z" class="st1"/>
		<path id="svg_4" d="m126,25.9l0,-18.7l-2.3,0.3l0,18.4l2.3,0zm5.2,-13.1l-4.6,6.5l4.8,6.6l2.7,0l-4.9,-6.6l4.7,-6.5l-2.7,0z" class="st1"/>
		<path id="svg_5" d="m142.6,7.3c-0.9,-0.2 -1.7,-0.3 -2.5,-0.3c-2.4,0 -3.7,1.2 -3.7,3.5l0,2.4l-2.3,0l0,1.9l2.3,0l0,11.2l2.3,0l0,-11.3l3.4,0l0.2,-1.9l-3.6,0l0,-2.2c0,-1.3 0.3,-1.8 1.7,-1.8c0.6,0 1.4,0.1 2,0.2l0.2,-1.7zm4.5,18.6l0,-18.7l-2.3,0.3l0,18.4l2.3,0z" class="st1"/>
		<path id="svg_6" d="m160.1,21.3l0,-3.8c0,-2.7 -1.5,-4.9 -5.3,-4.9c-3.8,0 -5.3,2.2 -5.3,4.9l0,3.8c0,2.7 1.5,4.9 5.3,4.9c3.8,0 5.3,-2.2 5.3,-4.9zm-2.3,-3.9l0,3.9c0,1.9 -1,2.9 -3.1,2.9c-2,0 -3.1,-1 -3.1,-2.9l0,-3.9c0,-1.9 1,-2.9 3.1,-2.9c2.1,0 3.1,1 3.1,2.9z" class="st1"/>
		<path id="svg_7" d="m175.6,25.9l2.8,-13.1l-2.1,0l-2.2,10.9l-3.2,-10.9l-2.7,0l-3.2,10.9l-2.2,-10.9l-2.1,0l2.8,13.1l2.9,0l3.2,-11.1l3.2,11.1l2.8,0z" class="st1"/>
		<rect id="svg_8" height="2.8" width="15.8" class="st2" y="10.3" x="1"/>
		<rect id="svg_9" height="2.8" width="15.8" class="st2" y="15.4" x="1"/>
		<rect id="svg_10" height="2.8" width="15.8" class="st2" y="20.5" x="1"/>
		<polygon id="svg_11" points="45.19999694824219,25.200000762939453 39.69999694824219,16.600000381469727 39.69999694824219,25.200000762939453 36.099998474121094,25.200000762939453 36.099998474121094,8.100000381469727 39.69999694824219,8.100000381469727 39.69999694824219,16.5 44.900001525878906,8.100000381469727 49,8.100000381469727 43.599998474121094,16.5 49.400001525878906,25.200000762939453 " class="st0"/>
		<path id="svg_12" d="m54.2,25.4c-3.9,0 -5.4,-1.4 -5.4,-4.9l0,-3.3c0,-3.5 1.6,-4.9 5.4,-4.9c0.8,0 2.1,0.1 3,0.5l0.2,0.1l-0.4,2.9l-0.2,-0.1c-0.8,-0.2 -1.8,-0.3 -2.5,-0.3c-1.6,0 -2.1,0.4 -2.1,1.8l0,3.4c0,1.4 0.5,1.8 2.1,1.8c0.8,0 1.7,-0.1 2.5,-0.3l0.2,-0.1l0.4,2.9l-0.2,0.1c-0.8,0.2 -2,0.4 -3,0.4z" class="st0"/>
		<path id="svg_13" d="m63.4,25.4c-3.6,0 -5.3,-1.6 -5.3,-4.9l0,-3.2c0,-3.2 1.8,-4.9 5.2,-4.9c3.4,0 5,1.6 5,5.1l0,2.8l-6.8,0l0,0.4c0,1.4 0.5,1.8 2.2,1.8c1.2,0 2.4,-0.2 3.7,-0.6l0.2,-0.1l0.6,2.7l-0.2,0.1c-1.3,0.5 -3,0.8 -4.6,0.8zm0,-10.1c-1.2,0 -1.8,0.6 -1.8,1.7l0,0.4l3.5,0l0,-0.4c-0.1,-1.3 -0.6,-1.7 -1.7,-1.7z" class="st0"/>
		<polygon id="svg_14" points="69.9000015258789,25.200000762939453 69.9000015258789,7.699999809265137 73.30000305175781,7.199999809265137 73.30000305175781,25.200000762939453 " class="st0"/>
		<polygon id="svg_15" points="75.19999694824219,25.200000762939453 75.19999694824219,7.699999809265137 78.5999984741211,7.199999809265137 78.5999984741211,25.200000762939453 " class="st0"/>
 </g>
</svg>